<svg xmlns="http://www.w3.org/2000/svg" width="450" height="65" viewBox="0 0 450 65"><g><g><g><g><path fill="#006f53" d="M30.93 62.15c16.9 0 30.6-13.77 30.6-30.755S47.83.64 30.93.64C14.029.64.33 14.41.33 31.395c.002 16.987 13.7 30.756 30.6 30.756z"/></g><g><path fill="#fff" d="M22.472 61.331l-.134-23.13s-.657-.26-.625 1.111c0 0-.099.325-.69.163 0 0-.233.064-.233.261 0 .196-1.058-.065-1.021-.946 0 0-.563.194-.628-.425 0 0 0-.36.593-.621 0 0 1.75.163 1.882-.39 0 0 .295-.557-.793-.262l-.726-.033s-.263-.196-.462 0c0 0-.593.946-1.45.097 0 0-1.253-.293 0-.815 0 0 .394-.066.264-.424 0 0 .56-.59.89-.556 0 0 .065-.39.594-.263 0 0 .461-.39 1.65-.194 0 0 .361-.589-.596-.426 0 0-.459.556-.923.23 0 0-.66.72-1.45.13 0 0-.89.164-.857-.555 0 0-.758.49-.594-1.11 0 0-2.935.654-2.572-.817 0 0 .032-1.731 2.934-2.092 0 0 .528-.065.692-.424 0 0 .69-.034 1.552.456 0 0 .56.032.923 1.176.362 1.144.955.066.825-.032 0 0-.825-.456-.53-1.34 0 0-1.186.655-.955-.62 0 0-.328-.132-.427-.457 0 0-.1-.882.362-1.177 0 0 .166.229.197-.654 0 0 .758-.229.265-.685 0 0-.593-.426-.727.325 0 0-1.188.524-.627-.98 0 0-.792 1.273-1.483.456h-.33s-1.484.687-.858-1.241c0 0-1.318 1.731-.957-.456 0 0 .957-1.439 3.067-.654 0 0 .824-.229 1.684.23 0 0 .261.26.923.26 0 0 .262-.327-.233-.392 0 0-1.45.131-.858-.947 0 0 .364-.588.233-.914 0 0-.89.229-1.288-.686 0 0-.263-.424-.562-.327 0 0-1.054.263-1.384-.294 0 0-.393-.032-.56-.293 0 0-1.747.456-.758-.915 0 0-.461-1.404 1.452-.849 0 0 .46-.358-.298-.685 0 0-1.087.946-1.617.522 0 0-.364-.39.858-1.11 0 0-1.68-.229-.13-1.046 0 0 .428-.26 1.087-.229 0 0 .66-.034.89.492 0 0 .427-.1.427-.23h.46s.299-.196.663-.196c.363 0 .395-.327.824.359 0 0-.298.523-1.123.26 0 0-.626 0-.065.36 0 0 1.188.848-.065 1.37 0 0-.131.457.759.457 0 0 .593.131.79.294 0 0-.361-.36-.23-.719 0 0-.232-.783.89-.556 0 0 .857.164.525-1.273 0 0-2.538.034-.429-1.143 0 0-1.02-.59-1.119-.654 0 0-.86.164-1.024.425 0 0-1.02.523-.89-.393 0 0 .461-.13.461-.293 0 0 .067-.293.496-.392l.99.033s.396-.49.594-.49c0 0 .89-.294.462-.49 0 0-.53-.034-.53-.424 0 0 .232-.49.825-.359 0 0 .231-.261-.033-.556 0 0-.364-.033-.33-.163 0 0-.461.066-.66-.1 0 0-.562.656-.892.492 0 0-.593 1.764-2.11 1.014 0 0-.032-.131-.263-.263 0 0-.196-.293-.033-.555l.197.032s-.132-.457.857-.391c0 0 .264 0 .232-.622 0 0 0-.49.66-.294 0 0 .33.163.527-.686 0 0 .363-.783 1.451-.588 0 0-.46-.621-.494-1.175 0 0-.396-.751.099-1.112 0 0 .167-.26.1-.687 0 0-.66-.064-.397-.783 0 0 .794-.686.992.327 0 0 .856.719.89-.034 0 0 .263-.849-.76-.685 0 0-.593.065-.298-.915 0 0 .233.034.265-.458 0 0 1.254-.261 1.121-.588l.297-.066s.2-.325.33-.032c0 0 .263.261.164.393 0 0 .824-.066.794.13 0 0 .46-.196.558.326 0 0 1.683.164.396.85 0 0 .065.555-.526.49 0 0 0 .555-.428.49 0 0-.891.75.131.424l.362-.197s1.253-1.078 1.418-.556c0 0 .363.293-.295.522 0 0-.957.59-1.155.883 0 0-.231.523-.66.523 0 0-.99.588-.329.654 0 0 .364.163.299.26l.261-.031s.494-.49.989-.132c0 0 .462.391-.262.622 0 0 .066.197-.563.13 0 0-.457.687-.888.131 0 0-.263-.229-.33.261 0 0-.129.524.265.524 0 0 .496.197.328.327 0 0 .527.097.562.26 0 0 .923.196 1.22-.097 0 0 .661-.622.99-.359 0 0 .328.327-.627.72 0 0-.065.26-.759.26 0 0-.46.066-.526.132 0 0-.233.295-.233.49 0 0-.064.522-.855.131-.792-.392-.035-.097-.035-.097s-1.022.26-.526.914l1.22.064s.493.034.394.49c0 0 .065.49-.067.686 0 0 .067.523.397.458 0 0 .923.065.856.359 0 0 .1.555.396.75 0 0 .363 1.437-1.023 1.176 0 0-.857-.033-.988-1.273 0 0-.33-.753-.528-.59 0 0-.065.393.099.59 0 0 .134.39-.43.13 0 0-.559-.164-.559.065l.034 1.7s.858.131 1.054.326c0 0 1.287-.032 1.221.72 0 0 .263.358.627.033 0 0 .561-.392.99.23 0 0 .56.163.56 0 0 0 .496-.46.662.326 0 0-.067.457.13.554 0 0 .197.687-.691.785 0 0 0-.229-.264-.163 0 0-.134-.49-.395-.327 0 0-.166.229-.496.229 0 0-.923.098-1.088-.066 0 0-.66-.197-.593-.326.066-.132-.067-.098-.067-.098s-.526.066-.394.327c0 0-.792.424 0 .358 0 0 .594.261.56.524 0 0 .858.295.726.425 0 0 .824.065.395 1.502 0 0-.296 1.502-1.022 1.111 0 0-.888.457-1.352.032 0 0-.362.066-.362.164 0 0 .561.424.427.556 0 0 .563.097.662-.132 0 0 .298-.39.69-.39 0 0 .793-.295 1.123.326 0 0 .263.132.297.85 0 0 .593.523 0 .75l-.166.293s.662-.227.759.556c0 0 .561.23.099.947l-.329.065s-.1.457-1.12-.163c0 0-.135-.327-.33-.197 0 0-.264-.327-.529-.39 0 0-.33-.23-.33.195 0 0 .297.358-.526.392 0 0 .297.39.13.522 0 0 .663 1.112 1.155 1.014 0 0 .726.197.726 1.08 0 0 .561.816.296 1.11 0 0 .364.392 0 .653 0 0-.065.556-.593-.034l-1.188-.033s.265.326.33.555c0 0 .758.327.791.95 0 0-.067.49-.526.425 0 0-.43.555-.658.523 0 0 .494.36.658.26 0 0 .328-.164.561.1 0 0 .724-.23.791.456 0 0 .66.719-.067 1.013 0 0-.393.066-.393.198 0 0-.364.13-.595-.066 0 0-.495.032-.56-.165 0 0-.659.065-.659-.1 0 0-.328-.065-.296-.163 0 0-.298 0-.133.295 0 0 .166 0 .198.165 0 0 .43-.066.43.13 0 0 .525.097.493.294 0 0 .594-.033.56.164 0 0 .265.064.198.294 0 0 .429.196.397.75 0 0 .526.165.46.49 0 0 .132.524-.726.362l-.2-.197-.261-.034s-.692-.424-.629-.555c.07-.13.036-.098.036-.098s-.758.229-.956-.295l-.165.23.159 23.292z"/></g><g><path fill="#fff" d="M36.476 62.956V46.142h-.825s-.099.169-.261.169c0 0 .196.235-.2.267 0 0-.26.169-.13.27h-.625s-.396.872-1.188.266c0 0-.364 0-.066-.57 0 0 .263-.067.066-.503 0 0 .164-.47.429-.535 0 0 .692-.908 1.221-.908 0 0 .823.067.823-.234 0 0 .396-.37.561-.303 0 0 .396-.37.066-.67l-.825-.068s-.197.638-.923.402c0 0-.757-.47.198-1.207 0 0 .328.133.132-.537-.198-.674-.099-.068-.099-.068s-.264-.57.525-.904c0 0 1.22-.07.86-.202 0 0 .427-.506-.234-.403 0 0-.196-.067-.527.101 0 0-.924.17-.956-.1 0 0-.494-.201-.395-.403l-.099-.571s.295-.236.034-.605c0 0-.43-.266-.397-.67 0 0 .067-.435.33-.435 0 0 1.384.034 1.384-.27 0 0 .328-.099.296-.77 0 0 .103-.336-.196-.807 0 0 .034-.37.131-.334l-.034-.202-.197-.035s.035.303-.329.168c0 0-.263.168-.296.403 0 0-.364.067-.329-.034.034-.101-.035-.101-.035-.101s.099.436-.328.4c0 0-.067.504-.594.135 0 0-.263-.168-.496.101l-.298-.133s-.261-.067-.065-.739c0 0 .167-.335.43-.434 0 0 .066-.605.594-.504 0 0 .196-.238-.1-.438 0 0-.297 0-.101-.47l-.066-.738s.198-.47.461-.402l.364-.168s.13-.203.429-.135c0 0 .032-.302-.066-.369 0 0-.727-.034-.593-.436 0 0 .231-.873-.362-.47 0 0-.298-.034-.53.168-.23.202-.098 0-.098 0s-.034.403-.43-.033c0 0-.294 0-.197-.268 0 0 0-.504.231-.504 0 0 .263-.301 1.024-.202l.196-.234s.526-.74.892-.74c0 0 .197-.267.393-.233 0 0 .396-.873.793-.84 0 0 .196-.168-.561-.168l-.495-.033h-.1s.1.234-.295.134c0 0 .196.337-.86.135 0 0-.263-.168-.561.27 0 0-.362.267-.46.301 0 0-.33.302-.527-.167v-1.04s.328-.371.297-.47c0 0 .692-.101.561-.169 0 0 .759-.067.89.068l.528-.068s.427.034.527-.537c0 0 .263-.436.659-.403 0 0 .46-.067.298-.202 0 0 .13-.234.262-.168 0 0 .593-.268.132-.369 0 0-.627.067-.034-.605 0 0 .297-.67-.067-.806 0 0-.23-.202-.395.672 0 0-.032.569-.593.636 0 0-.56.772-1.188-.067l-.13-.94s.297-.034.264-.436l.033-.805s-.067-.571.495-.571c0 0 .429-.47-.263-.436 0 0-.398.301-.99-.068-.594-.368-.1-.033-.1-.033s-.594-.068-.561-.47l.099-.369s-.166-.537.429-.504c0 0 .561-.067.725.169 0 0 .465.168.496.067 0 0 .396-.234.594-.067 0 0-.625-.47 0-.807 0 0 .46-.268-.728-.234 0 0-.263.234-.363-.436 0 0 .035-.538.794-.37 0 0 .297.235.558-.1 0 0 .132-.268.33-.234 0 0 .166-.504.396-.436 0 0 .363-.134.264-.504 0 0-.233 0-.363.135 0 0-.299-.066-.69-.504 0 0-.596-.167-.103-.67l.758-.068.132-.168.13.034s.135-.504-.395-.67c0 0-.196-.068-.46-.403l-.428-.135s-.593-.906.198-.704c0 0 .328 0 .46.202 0 0 .33.135.299.27 0 0 .196-.169.327-.169 0 0-.396-.134-.362-.402 0 0 .166-.27.296-.236l.066-.101.199.067s.526-.301-.035-.503c0 0-.166-.101-.562-.234 0 0-.591.267-.56-.437 0 0 .364-.838.594-.973 0 0 .297-.202.46 0l.133-.067s-.132-.336-.099-.67c0 0 .196-.907.758-.27 0 0 .328.1.429.636.1.538.032.101.032.101s.331.235.298.437c0 0 .464.37.43.1l.098.37.134.067-.034.268s.295-.202.23.47c0 0 .033.436.395.436 0 0 .364-.034.297.268 0 0 .328.102-.166.638 0 0-.23.202 0 .369 0 0 1.552.872.265 1.677l-.659.101-.033.906s.69-.168 1.054.336c.362.503.098.1.098.1s.329.437.43.403c0 0 .363.067.33.268 0 0 .79.101.625.436 0 0 .068.403.33.436 0 0 .429.034.395.27 0 0 .461-.236.526.67 0 0 .196.94-1.02.94 0 0-.43.369-.927.034 0 0-.494-.304-.46-.772 0 0-.23-.168-.327-.603 0 0-.498-.672-.957-.337 0 0-.427.1-.592.37l.062.134s.89.101.989.47c0 0 .498.369-.295.537l-.033.202s.428-.134.625.401l.89.169s.529 0 .792.604c.263.603.033.101.033.101l-.033-.1s.595.334.364.77c0 0-.066.504-.924.102 0 0-.065-.236-.692-.336l-.395-.067s-.332-.369-.66.168c0 0 .164.672.757.605 0 0 .528-.135.528.101 0 0 1.089-.236 1.319.302 0 0 .395.1.693-.2l1.153-.034.13.267.266.068s.363.47.098.805c0 0-.033.335.364.47 0 0 .824.368.261 1.007 0 0-.625.636-1.218-.403l-.166-.067v-.202l-.263.033s-.263.706-1.22.873c0 0-.66-.034-.86-.202l-.361-.034s-.528-.236-.562-.738c0 0 .165-.672.396-.77l-.396-.17v-.134l-.494.034s-.102.27-.395.168c0 0 0 .268-.461.135 0 0 .2.335 0 .436 0 0 .526.067.395.236 0 0 .56-.303.791.335l-.132.167s.2.672-.396.705c0 0-.164.504-.326.504h.923s.099-.403 1.222-.169c0 0 .524-.436.955-.436 0 0 .33-.236.593-.202l.134-.135.658.034s.394.234.394.571c0 0 .957.872.035 1.174 0 0-.46.335-.792-.369l-.362-.034s-.263.169-.496.135c0 0-.065.47-.46.47 0 0 0 .302-.529.234 0 0 .1.37-.427.169 0 0-.065.301-.396.166 0 0-.1.335.297.37 0 0 .463.102.263.536l1.155.101s.2.034.395.302c0 0 1.416-.101 1.352.67l-.035.772s.99.67.528 1.308c0 0-.46.37-.858-.236 0 0-.166-.301-.46-.47 0 0-.462-.166-.691-.269 0 0-.2-.135-.168.202 0 0 .396.034.364.202l.561.101s.43.37.394.571c0 0 .76.972-.198 1.142 0 0-.263.334-.79-.067l-.461.034s-.067.235-.364.134c0 0-.13.401-.99.303 0 0-.198.437-.726.469 0 0-.166.235-.561.235 0 0 .725.2.593.571 0 0 .364-.067.196.336l.134.37-.035.468s.035.133-.329.202c0 0-.13.469.066.536 0 0 0 .034-.134.135 0 0 .298.47-.557.1 0 0-.464-.235-.102.671l.166.133s.365-.807 1.056-.807c0 0 .528-.2.395-.335 0 0 .563-.333.793.135 0 0 .395.032.363.2 0 0 .594-.099.527.103 0 0 .46 0 .33-.103 0 0 .755-.099.69.27-.065.369 0 .103 0 .103s.33.033.33.4c0 0 .955-.033.76.37 0 0 .559.302.326.806 0 0 .33.067.364.571 0 0 .2.505-.526.537h-1.418s-.43-.2-.858-.033c0 0 .561.434.261.737 0 0 .563.2-.724 1.04 0 0-.824.47-1.55.068 0 0-.593.2-.891-.202 0 0-.295.068-.625-.303 0 0-.429-.234-.494.202l.457.034s.168.369.498.135c0 0 1.055.47 1.055.303 0 0 .527.301.396.468 0 0 .593.268.593.504 0 0 .166.37.362.438 0 0 .498.602-.494.906 0 0-.329.301-.89-.304 0 0-.298.2-.364-.134h-.196s-.099.303-.563.033c0 0-.295 0-.295-.168 0 0-.23-.1-.298.035h-.36s-.265.403.13.571c0 0 .327.169.23.268 0 0 .46-.1 1.12-.034.661.068.102 0 .102 0s.33.37.626.37c0 0 .594.3-.067.905 0 0-.459.37-.955.234 0 0-.298-.133-.363-.4 0 0-.364.065-.426-.2-.069-.27 0-.104 0-.104s-.035.504-.563-.234l-.526.066v16.177c.016.003-.213.27-1.106.204z"/></g><g><g><path fill="#006f53" d="M40.18 42.363s.824.067.858-.068c0 0 .33-.436.89-.067l.233.101s-.233 0-.233.133l-.66.068s-.362.168-.627.033z"/></g><g><path fill="#006f53" d="M35.565 31.28v.771s-.13.101-.263-.1c-.132-.203-.1-.068-.1-.068s0-.369-.23-.302l-.102-.202.233-.067z"/></g><g><path fill="#006f53" d="M38.665 29.5l-.065 1.475s.922.336.856.605c0 0 1.058-.638 1.683-.504 0 0 .233-.2.395-.2 0-.002-1.682.1-2.869-1.376z"/></g><g><path fill="#006f53" d="M17.503 14.64s.89.167 1.019.032c0 0 .628.436.957.403 0 0 .429.168.496.067 0 0 .23.434.625.402l.035.336s-.364.436-.957.234c0 0-.296-.403-.561-.268 0 0-.43-.169-.461-.436-.034-.268-.034-.101-.034-.101s-.395-.236-.526-.135c0 0-.363-.537-.626-.436-.265.104.033-.098.033-.098z"/></g><g><path fill="#006f53" d="M16.782 31.111s-.626-.1-.132.335h.823s.166-.267.593-.1c0 0 .196-.302.593-.235l.396-.168s.165-.403-.232-.335c0 0-.2.202-.628 0 0 0 .035.301-.76.335.004 0-.028.236-.653.168z"/></g><g><path fill="#006f53" d="M18.199 32.007l1.912-.067s.067.335-.594.537c0 0-.727-.1-.727.101 0 0-.757.034-.858-.134l-.46-.068s-.69-.033.13-.369z"/></g><g><path fill="#006f53" d="M24.252 31.19l-.032.4"/></g></g></g><g><g><path d="M85.106 17.57l8.995 17.137h2.802v.655H85.106v-.655h3.466l-2.174-4.16h-8.222l-1.438 2.773c-.185.378-.332.682-.332.935 0 .452.59.452 1.437.452h1.807v.655h-8.11v-.655h1.622c1.585-.104 1.622-.204 2.544-1.767l8.185-15.37zm-6.595 12.313h7.513l-3.793-7.046z"/></g><g><path d="M97.97 35.362v-.682h3.022V18.225H97.97v-.655h13.088c2.432.05 4.754.102 7.261 1.335 3.54 1.765 4.793 4.813 4.793 7.813 0 1.209-.222 2.922-1.622 4.814-2.802 3.781-7.078 3.83-10.322 3.83zm13.089-17.06h-4.607v16.38h4.015c2.947 0 5.38-.629 6.116-3.552.37-1.49.48-3.002.48-4.512 0-.983-.073-1.84-.11-2.445-.295-2.973-.885-3.755-1.253-4.208-1.29-1.563-3.057-1.665-4.641-1.665z"/></g><g><path d="M135.1 18.225v16.482h3.096v.655H126.51v-.655h3.097V18.225h-3.097v-.655h11.686v.655z"/></g><g><path d="M141.813 18.25v-.68h12.903c2.027.05 4.13.075 5.824.68 2.026.732 3.06 2.042 3.06 3.603 0 1.714-1.55 3.329-5.088 3.83-.847.127-1.732.18-2.58.229.884.15 1.805.301 2.616.53a8.77 8.77 0 0 1 2.1.905c1.918 1.163 2.251 2.218 2.361 4.538.074 1.638.145 2.672 1.842 2.672.737 0 1.51-.229 1.99-.38v.733c-1.548.327-2.801.553-4.535.553-1.032 0-2.507-.053-3.798-1.135-1.252-1.033-1.437-2.443-1.473-3.478-.039-.703-.112-1.208-.259-2.063-.331-2.169-1.953-2.597-4.422-2.597H150.4v8.517h3.65v.655h-12.24v-.655h3.134V18.25zm8.585.05v7.207h3.134c1.069-.024 2.876-.052 3.871-1.109.295-.276.664-.831.664-2.62 0-2.696-1.032-3.428-4.571-3.478z"/></g><g><path d="M191.425 32.69c-2.84 2.392-6.303 3.048-9.806 3.048-3.317 0-6.414-.606-9.18-2.748-1.732-1.362-3.429-3.427-3.429-6.352 0-2.721 1.44-5.315 4.536-7.23 2.432-1.538 5.234-2.218 8.552-2.218 7.705 0 12.424 4.06 12.424 9.198 0 1.262-.222 3.857-3.097 6.302zm-9.656-14.818c-5.936 0-6.49 4.11-6.49 8.14 0 2.166.147 4.788.85 6.148 1.18 2.47 3.426 2.923 5.822 2.923 1.992 0 4.278-.278 5.531-3.025.552-1.211.735-2.521.735-5.696 0-5.164-.59-8.49-6.448-8.49z"/></g><g><path d="M205.432 17.563l12.57 11.389v-9.349c.037-1.133-.038-1.386-2.063-1.386h-1.144v-.655h7.372v.655h-1.179c-1.622-.052-1.732.326-1.77 1.965v15.296h-.882l-16.995-15.675v13.279c.035 1.136.403 1.561 1.807 1.615h1.879v.655h-8.037v-.655h1.327c1.584-.052 1.77-.452 1.805-1.565V19.803c-.035-1.11-.035-1.513-1.842-1.563l-1.288-.025v-.655h8.44z"/></g><g><path d="M224.05 35.362v-.682h3.026V18.225h-3.026v-.655h13.09c2.431.05 4.755.102 7.262 1.335 3.536 1.765 4.79 4.813 4.79 7.813 0 1.209-.219 2.922-1.622 4.814-2.802 3.781-7.078 3.83-10.32 3.83zM237.14 18.3v.002h-4.608v16.38h4.017c2.947 0 5.383-.629 6.118-3.552.369-1.49.482-3.002.482-4.512 0-.983-.075-1.84-.113-2.445-.294-2.973-.882-3.755-1.25-4.208-1.293-1.563-3.061-1.665-4.647-1.665z"/></g><g><path d="M263.468 17.57l8.995 17.137h2.8v.655h-11.795v-.655h3.464l-2.176-4.16h-8.221l-1.439 2.773c-.182.378-.328.682-.328.935 0 .452.588.452 1.435.452h1.807v.655h-8.11v-.655h1.622c1.585-.104 1.624-.204 2.542-1.767l8.185-15.37zm-6.603 12.313h7.518l-3.796-7.046z"/></g><g><path d="M296.69 22.203l-1.181-.025c-.365-1.21-1.364-4.333-6.561-4.333-4.793 0-5.715 2.697-6.047 3.653-.628 1.815-.7 3.68-.7 5.544 0 5.116 1.622 7.963 6.193 7.963a9.482 9.482 0 0 0 3.06-.503c2.986-1.035 3.908-2.974 4.462-4.134h1.143l-.406 4.99h-.886l-1.175-1.106c-.7.426-2.435 1.486-6.196 1.486-8.517 0-12.386-4.486-12.386-9.048 0-5.745 6.193-9.5 12.756-9.5 3.242 0 5.046.958 6.008 1.462l.735-1.084h.96z"/></g><g><path d="M310.112 18.217v16.481h3.132v.655H301.67v-.655h3.06V18.217h-3.06v-.655h11.574v.655zm13.853.025c-1.36 0-1.878.151-3.794 1.638l-5.45 4.157 10.352 10.66h1.877v.655h-11.307v-.655h3.13l-8.398-8.542 8.398-6.503c.629-.454 1.107-.805 1.107-1.059 0-.378-.478-.378-1.513-.378h-1.878v-.655h8.584v.655z"/></g><g><path d="M350.555 26.467h-3.433v8.24h3.69c1.22 0 2.692-.104 3.69-1.212.666-.755.773-1.765.773-2.845 0-1.288-.147-2.47-1.03-3.203-1.07-.907-2.62-.982-3.69-.982zm-12.025-8.244v-.653h12.02c2.136.025 4.497.075 6.525.857 2.323.933 2.986 2.27 2.986 3.555 0 1.936-1.772 3.223-4.314 3.753-.81.153-1.657.252-2.507.327.96.076 1.878.151 2.764.301 2.542.455 5.27 1.715 5.27 4.287a3.42 3.42 0 0 1-.735 2.138c-1.993 2.547-6.636 2.547-10.507 2.572H338.53v-.655h3.136V18.223zm11.471.05l-2.878-.001v7.486h3.025c2.878 0 4.43-.705 4.43-3.655 0-3.325-1.552-3.83-4.577-3.83z"/></g><g><path d="M376.386 17.57l8.994 17.137h2.803v.655h-11.795v-.655h3.464l-2.176-4.16h-8.221l-1.436 2.773c-.185.378-.331.682-.331.935 0 .452.588.452 1.435.452h1.804v.655h-8.107v-.655h1.622c1.585-.104 1.62-.204 2.542-1.767l8.185-15.37zm-6.597 12.313h7.515l-3.793-7.046z"/></g><g><path d="M397.588 17.563l12.571 11.389v-9.349c.035-1.133-.038-1.386-2.063-1.386h-1.142v-.655h7.374v.655h-1.181c-1.622-.052-1.732.326-1.767 1.965v15.296h-.886L393.5 19.803v13.279c.039 1.136.407 1.561 1.807 1.615h1.879v.655h-8.035v-.655h1.329c1.582-.052 1.768-.452 1.807-1.565V19.803c-.039-1.11-.039-1.513-1.846-1.563l-1.288-.025v-.655h8.436v.003z"/></g><g><path d="M426.122 18.217v16.481h3.132v.655H417.68v-.655h3.06V18.217h-3.06v-.655h11.574v.655zm13.856.025c-1.363 0-1.88.151-3.797 1.638l-5.45 4.157 10.352 10.66h1.88v.655H431.65v-.655h3.137l-8.402-8.542 8.402-6.503c.624-.454 1.103-.805 1.103-1.059 0-.378-.479-.378-1.513-.378h-1.874v-.655h8.58v.655z"/></g></g><g><g><path fill="#fff" d="M446.427 31.82v.37h-1.035v2.745h-.418V32.19h-1.034v-.37z"/></g><g><path fill="#fff" d="M446.8 31.82h.595l.882 2.635.877-2.635h.591v3.116h-.399v-1.84c0-.064.002-.168.005-.316.004-.148.006-.304.006-.475l-.879 2.63h-.41l-.885-2.63v.096c0 .075.004.194.007.349.005.156.007.272.007.345v1.84h-.397V31.82z"/></g></g><g><g><path d="M223.041 63.712V59.58h2.206c.87 0 1.531.174 1.982.517.45.346.677.872.677 1.58 0 .355-.075.66-.218.912a1.895 1.895 0 0 1-.593.63c-.25.168-.547.292-.885.373-.34.08-.708.121-1.097.121zm.003-5.044v-3.707h2.071c.509 0 .916.074 1.216.22.3.148.528.323.683.526.155.202.257.405.3.607.045.203.067.36.067.47 0 .345-.065.635-.194.873-.13.24-.298.436-.504.586-.205.15-.435.26-.69.326a3.07 3.07 0 0 1-.773.1zm-1.084-4.708l.002 10.756h3.241c.851 0 1.532-.121 2.044-.364.51-.245.9-.53 1.17-.86.27-.327.449-.66.534-.995.085-.332.127-.585.127-.758 0-.791-.212-1.42-.64-1.891-.425-.471-1.014-.738-1.763-.798v-.03c.599-.143 1.063-.421 1.388-.843.326-.422.489-.925.489-1.512 0-.508-.097-.933-.287-1.277a2.363 2.363 0 0 0-.766-.836 3.203 3.203 0 0 0-1.094-.455 5.887 5.887 0 0 0-1.278-.137z"/></g><g><path d="M235.145 61.178l.509-.002v.516c0 .313-.042.607-.127.885a2.004 2.004 0 0 1-.397.73 1.96 1.96 0 0 1-.67.49 2.237 2.237 0 0 1-.937.183 2.6 2.6 0 0 1-.592-.07 1.672 1.672 0 0 1-.533-.227 1.24 1.24 0 0 1-.382-.409 1.164 1.164 0 0 1-.142-.597c0-.354.122-.632.368-.834.245-.202.54-.35.886-.448a5.48 5.48 0 0 1 1.079-.18c.375-.025.69-.037.938-.037zm.015-.827c-.42 0-.883.02-1.39.06-.504.041-.98.143-1.425.305a2.73 2.73 0 0 0-1.111.737c-.297.33-.444.783-.444 1.36 0 .344.068.647.202.903.135.26.315.478.54.655.226.175.483.307.773.393.292.086.59.13.903.13.57 0 1.052-.105 1.448-.312.395-.208.737-.55 1.028-1.025h.03c0 .193.01.39.023.593.017.202.038.39.068.562h.961a11.067 11.067 0 0 1-.12-1.596V59.94c0-.435-.07-.808-.21-1.124a2.293 2.293 0 0 0-.556-.781 2.24 2.24 0 0 0-.817-.464 3.21 3.21 0 0 0-.984-.152c-1.322 0-2.311.344-2.972 1.033l.599.714a3.082 3.082 0 0 1 2.147-.836c1.202 0 1.802.613 1.802 1.838v.182z"/></g><g><path d="M240.053 57.602c.021.193.033.383.036.57.005.186.009.377.009.57h.03c.11-.193.248-.37.422-.53a2.67 2.67 0 0 1 .57-.42 3.14 3.14 0 0 1 .668-.272c.235-.066.465-.1.697-.1.901 0 1.567.241 1.997.722.431.481.646 1.166.646 2.059v4.51h-.99v-3.933c0-.79-.136-1.394-.406-1.814-.27-.42-.771-.631-1.5-.631-.052 0-.192.022-.42.06-.233.041-.475.153-.731.335-.254.18-.483.455-.683.82-.2.364-.3.87-.3 1.517v3.645h-.993v-5.543c0-.191-.007-.436-.023-.73-.014-.293-.034-.572-.052-.835z"/></g><g><path d="M248.614 60.807l3.317-3.203h1.487l-3.499 3.25 3.874 3.858h-1.531l-3.65-3.736v3.736h-.992V53.23h.993l.001 7.577z"/></g><g><path d="M260.471 63.712h4.955v1.002h-6.036V53.96h1.081z"/></g><g><path d="M272.555 62.264a2.668 2.668 0 0 1-.532.896 2.522 2.522 0 0 1-.835.599 2.652 2.652 0 0 1-1.102.22c-.41 0-.78-.073-1.103-.22a2.423 2.423 0 0 1-.828-.599 2.764 2.764 0 0 1-.524-.896 3.218 3.218 0 0 1-.187-1.108c0-.393.062-.762.187-1.106.125-.344.299-.643.524-.896.227-.253.502-.452.828-.599a2.647 2.647 0 0 1 1.103-.22c.41 0 .777.075 1.102.22.326.145.603.346.835.599.228.253.407.551.532.896.125.344.187.713.187 1.106 0 .395-.062.764-.187 1.108zm.99-2.596a3.551 3.551 0 0 0-.775-1.185 3.538 3.538 0 0 0-1.178-.781 3.922 3.922 0 0 0-1.508-.282 3.89 3.89 0 0 0-1.495.282c-.455.187-.85.449-1.18.781a3.608 3.608 0 0 0-.772 1.185 3.928 3.928 0 0 0-.277 1.488c0 .538.092 1.033.277 1.49a3.6 3.6 0 0 0 .772 1.183c.33.334.723.596 1.18.783.457.187.954.282 1.495.282.55 0 1.054-.095 1.508-.282a3.517 3.517 0 0 0 1.952-1.966 3.93 3.93 0 0 0 .279-1.49c0-.535-.093-1.03-.279-1.488z"/></g><g><path d="M280.98 59.282a2.115 2.115 0 0 0-.713-.668 2.01 2.01 0 0 0-1.043-.274c-.41-.01-.78.056-1.105.198a2.41 2.41 0 0 0-.832.594c-.23.251-.406.553-.526.903-.118.349-.178.727-.178 1.13 0 .405.06.783.178 1.133.12.349.297.65.526.902.23.253.509.453.832.594.326.142.695.208 1.105.198.39 0 .737-.093 1.043-.274.307-.182.544-.405.714-.668l.81.623a3.359 3.359 0 0 1-1.186.92c-.44.195-.9.3-1.381.312-.57.01-1.086-.08-1.548-.267a3.432 3.432 0 0 1-1.178-.781 3.374 3.374 0 0 1-.743-1.193 4.237 4.237 0 0 1-.255-1.497c0-.535.085-1.035.255-1.495.172-.46.42-.86.743-1.193.325-.334.719-.596 1.178-.782.46-.187.977-.276 1.548-.266.48.012.941.113 1.381.312.44.2.835.505 1.187.92z"/></g><g><path d="M287.495 61.178l.509-.002v.516c0 .313-.044.607-.129.885a1.98 1.98 0 0 1-.397.73c-.18.206-.402.37-.67.49a2.226 2.226 0 0 1-.937.183c-.198 0-.397-.024-.592-.07a1.663 1.663 0 0 1-.53-.227 1.212 1.212 0 0 1-.384-.409 1.181 1.181 0 0 1-.142-.597c0-.354.123-.632.367-.834.245-.202.54-.35.886-.448a5.497 5.497 0 0 1 1.081-.18c.374-.025.687-.037.938-.037zm.013-.827c-.42 0-.883.02-1.39.06-.504.041-.98.143-1.425.305-.445.163-.816.41-1.11.737-.296.33-.443.783-.443 1.36 0 .344.067.647.202.903.133.26.315.478.54.655.226.175.483.307.773.393.29.086.589.13.9.13.573 0 1.055-.105 1.45-.312.395-.208.738-.55 1.029-1.025h.03c0 .193.008.39.023.593.017.202.037.39.068.562h.961a10.708 10.708 0 0 1-.12-1.597v-3.174c0-.435-.071-.808-.212-1.124a2.289 2.289 0 0 0-.554-.781 2.253 2.253 0 0 0-.817-.464 3.218 3.218 0 0 0-.984-.152c-1.324 0-2.313.344-2.974 1.033l.601.714a3.082 3.082 0 0 1 2.147-.836c1.2 0 1.802.613 1.802 1.838v.182z"/></g><g><path d="M292.571 64.712h-.991V53.23h.991z"/></g></g></g></g></svg>