<svg xmlns="http://www.w3.org/2000/svg" width="145" height="110" viewBox="0 0 145 110"><g><g><g><path fill="#006e53" d="M50.235 54.607l30.337 24.456c1.56 1.257 3.95 1.362 5.614.245l22.31-15.321 27.037 21.558V99c0 .952-.62 1.571-1.575 1.571H11.032c-.954 0-1.575-.619-1.575-1.571V82.647zM83.533 31.43c2.667 0 4.728 2.055 4.728 4.714 0 2.66-2.061 4.714-4.728 4.714-2.668 0-4.729-2.055-4.729-4.714 0-2.66 2.061-4.714 4.729-4.714zm0-9.429c-7.778 0-14.185 6.388-14.185 14.143 0 7.755 6.407 14.143 14.185 14.143 7.778 0 14.184-6.388 14.184-14.143C97.717 28.388 91.311 22 83.533 22zM11.033 9.43h122.925c.954 0 1.575.619 1.575 1.57v62.455l-23.836-19.001c-1.56-1.258-3.95-1.362-5.614-.246l-22.36 15.32-30.337-24.501a4.796 4.796 0 0 0-3.496-1.031 4.76 4.76 0 0 0-2.167.834L9.457 71.147V11c0-.952.62-1.571 1.576-1.571zm0-9.429C5.003 0 0 4.988 0 11v88c0 6.012 5.002 11 11.033 11h122.934c6.03 0 11.033-4.988 11.033-11V11c0-6.012-5.002-11-11.033-11z"/></g></g></g></svg>