<svg xmlns="http://www.w3.org/2000/svg" width="65" height="38" viewBox="0 0 65 38"><g><g><g><path fill="#4a4a4a" d="M.95 24.49v2.23h1.354v-.4H1.32v-.574h.861v-.386H1.32v-.474h.942v-.396z"/></g><g><g><path fill="#4a4a4a" d="M3.426 26.395a.397.397 0 0 1-.298-.128c-.128-.133-.192-.351-.192-.656 0-.262.045-.457.135-.588a.416.416 0 0 1 .36-.197c.16 0 .282.068.366.206.084.137.126.33.126.58 0 .109-.01.204-.028.286a1.207 1.207 0 0 1-.061.191l-.184-.215-.195.25.183.215a.555.555 0 0 1-.085.036zm.872-.817c0-.376-.092-.668-.276-.876a.754.754 0 0 0-.59-.272.76.76 0 0 0-.584.256c-.192.21-.288.517-.288.925 0 .404.093.711.281.92.154.173.35.26.586.26.114 0 .21-.016.292-.05a.875.875 0 0 0 .173-.105l.216.255.195-.255-.205-.24a.899.899 0 0 0 .141-.32z"/></g><g><path fill="#4a4a4a" d="M4.58 24.49h.385v1.369c0 .153.014.264.044.335.046.125.147.187.3.187.154 0 .253-.062.3-.187a.934.934 0 0 0 .043-.335V24.49h.385v1.37c0 .237-.03.422-.09.554-.11.242-.323.363-.638.363-.314 0-.527-.12-.64-.363-.06-.132-.089-.317-.089-.553z"/></g></g><g><path fill="#4a4a4a" d="M7.127 25.002l.227.873h-.462zm-.857 1.72h.395l.123-.458h.667l.12.457h.41l-.64-2.231h-.427z"/></g><g><path fill="#4a4a4a" d="M8.22 24.49h.38v1.83H9.5v.401H8.22z"/></g><g><path fill="#4a4a4a" d="M11.11 26.721V24.49h.376v.85h.707v-.85h.374v2.231h-.374v-.994h-.707v.994z"/></g><g><g><path fill="#4a4a4a" d="M13.73 26.384a.414.414 0 0 1-.36-.202c-.09-.135-.135-.327-.135-.576 0-.25.045-.442.134-.577a.412.412 0 0 1 .36-.203.41.41 0 0 1 .36.203c.089.136.132.328.132.577 0 .249-.043.441-.132.576zm.867-.773c0-.41-.09-.717-.274-.921-.137-.174-.334-.26-.594-.26-.26 0-.457.086-.594.26-.184.204-.275.512-.275.92 0 .4.091.707.275.92.137.174.335.26.594.26.26 0 .457-.086.594-.26z"/></g><g><path fill="#4a4a4a" d="M14.89 24.49h.385v1.369c0 .153.014.264.044.335.046.125.147.187.3.187.154 0 .253-.062.3-.187a.934.934 0 0 0 .043-.335V24.49h.385v1.37c0 .237-.03.422-.09.554-.11.242-.323.363-.638.363-.314 0-.527-.12-.64-.363-.06-.132-.089-.317-.089-.553z"/></g><g><path fill="#4a4a4a" d="M16.984 26.035a.516.516 0 0 0 .069.228c.062.092.17.138.321.138a.556.556 0 0 0 .221-.036c.108-.046.162-.133.162-.26a.206.206 0 0 0-.078-.17.763.763 0 0 0-.25-.105l-.197-.053c-.192-.052-.325-.108-.398-.17-.122-.103-.183-.263-.183-.482 0-.2.059-.365.178-.498.12-.132.296-.197.526-.197.194 0 .358.061.494.186.137.125.208.304.215.542h-.361c-.008-.134-.056-.228-.147-.285a.429.429 0 0 0-.226-.055.38.38 0 0 0-.24.072.248.248 0 0 0-.09.202c0 .079.029.138.088.178a.94.94 0 0 0 .241.091l.318.092a.762.762 0 0 1 .313.162c.108.106.162.258.162.457a.704.704 0 0 1-.193.507c-.127.134-.308.202-.54.202-.24 0-.427-.067-.563-.2-.137-.132-.206-.314-.206-.546z"/></g></g><g><path fill="#4a4a4a" d="M18.353 26.72h.376v-2.23h-.376z"/></g><g><path fill="#4a4a4a" d="M19.08 24.49h.394l.726 1.559V24.49h.349v2.231h-.375l-.744-1.588v1.588h-.35z"/></g><g><path fill="#4a4a4a" d="M22.125 25.193c-.029-.153-.098-.259-.21-.32a.431.431 0 0 0-.567.153c-.094.136-.14.34-.14.611 0 .273.05.467.152.58.1.114.216.17.346.17.127 0 .23-.044.312-.133a.631.631 0 0 0 .15-.352h-.42v-.372h.756v1.197h-.25l-.04-.278a.961.961 0 0 1-.196.222.602.602 0 0 1-.368.113.705.705 0 0 1-.59-.307c-.16-.205-.24-.486-.24-.843 0-.36.08-.65.242-.868a.76.76 0 0 1 .64-.326c.231 0 .416.072.556.215a.87.87 0 0 1 .24.538z"/></g><g><path fill="#4a4a4a" d="M1 27.41v4.174h2.542v-.75H1.747V27.41z"/></g><g><path fill="#4a4a4a" d="M4.4 27.41v4.174h2.678v-.75H5.134V29.76h1.704v-.726H5.134v-.884h1.858v-.741z"/></g><g><path fill="#4a4a4a" d="M10.239 27.41v2.905L8.817 27.41H8.03v4.174h.7v-2.96l1.458 2.96h.75V27.41z"/></g><g><path fill="#4a4a4a" d="M13.398 28.136c.34 0 .569.114.682.341.115.227.171.553.171.978 0 .308-.037.573-.113.795-.14.406-.386.609-.74.609h-.69v-2.723zm.682-.635a1.661 1.661 0 0 0-.555-.091H11.98v4.174h1.545c.542 0 .943-.259 1.203-.779.191-.385.287-.854.287-1.41 0-.218-.024-.449-.069-.69a2.008 2.008 0 0 0-.255-.675 1.222 1.222 0 0 0-.61-.529z"/></g><g><path fill="#4a4a4a" d="M15.93 27.41v4.174h2.677v-.75h-1.944V29.76h1.704v-.726h-1.704v-.884h1.858v-.741z"/></g><g><path fill="#4a4a4a" d="M21.14 28.136c.154 0 .269.024.345.073.137.087.205.258.205.51 0 .234-.07.392-.212.47-.08.046-.199.068-.359.068h-.803v-1.121zm.722-.618c-.132-.067-.32-.102-.566-.108H19.58v4.174h.734V29.95h.731c.208 0 .351.043.427.132.076.089.116.266.118.532l.005.388a2.569 2.569 0 0 0 .08.582h.828v-.105a.355.355 0 0 1-.139-.238 2.492 2.492 0 0 1-.019-.387v-.28c0-.292-.034-.51-.104-.651a.702.702 0 0 0-.35-.331.757.757 0 0 0 .425-.407 1.41 1.41 0 0 0 .129-.585c0-.164-.023-.31-.066-.44a1.41 1.41 0 0 0-.181-.35.9.9 0 0 0-.336-.292z"/></g><g><path fill="#4a4a4a" d="M3.571 13.069l8.037-4.118 7.945 4.118v7.65H3.571zM0 11.97v2.401l1.283.02v8.6h20.55l-.669-.677.68.676-.011-8.619h1.381v-2.401L11.608 6.07z"/></g><g><path fill="#4a4a4a" d="M7.81 18.796h7.496V16.73H7.81z"/></g><g><path fill="#4a4a4a" d="M7.81 15.086h7.53V13.02H7.81z"/></g><g><g><path fill="#4a4a4a" d="M48.42 18.972c1.508 0 2.621.858 2.621 2.588 0 2.017-1.365 2.712-3.123 2.712v-5.281c.215 0 .377-.019.502-.019zm-3.25 7.546h2.854c3.518 0 5.726-1.605 5.726-4.902 0-2.979-1.991-4.886-5.116-4.886H45.17z"/></g><g><path fill="#4a4a4a" d="M64.484 19.571v-2.584c-.7-.286-1.329-.447-2.208-.447-2.89 0-5.206 2.176-5.206 5.046 0 2.871 2.28 4.975 5.152 4.975 1.023 0 1.723-.215 2.262-.624V23.35c-.808.499-1.364.714-2.118.714-1.455 0-2.585-1.053-2.585-2.604 0-1.515 1.149-2.621 2.585-2.621.79 0 1.364.268 2.118.731"/></g><g><path fill="#4a4a4a" d="M39.14 14.763v.463h1.92v-.463c-.556-.018-.646-.09-.646-.463v-2.335l1.15 3.261h.484l1.239-3.261v2.28c0 .483 0 .483-.682.518v.463h2.225v-.463c-.646 0-.664-.07-.664-.41v-2.282c0-.375.055-.499.664-.499v-.482h-1.902l-.97 2.621-.898-2.621h-1.92v.482c.539 0 .629 0 .629.463v2.193c0 .428 0 .535-.629.535"/></g><g><path fill="#4a4a4a" d="M48.46 14.767v.463h1.777v-.463c-.43-.018-.43-.071-.43-.66v-.5c0-.48.215-.873.663-.873.36 0 .467.232.467.553v1.052c0 .357-.018.428-.449.428v.463h1.598v-.463c-.377 0-.413-.036-.413-.392v-.73c0-.5.233-.929.7-.929.36 0 .431.214.431.642v1.07c0 .303 0 .339-.431.339v.463h1.76v-.463c-.54 0-.575.018-.575-.286v-1.194c0-.677-.162-1.07-.861-1.07-.414 0-.683.16-1.024.517-.18-.32-.431-.534-.861-.534-.45 0-.754.232-1.006.57v-.481H48.46v.427c.539 0 .592.018.592.446v.98c0 .625 0 .625-.592.625"/></g></g><g><path fill="#4a4a4a" d="M39.23 16.73v9.788h2.711l.018-3.744h2.639v-2.265h-2.621l-.018-1.515h2.836V16.73z"/></g><g><path fill="#4a4a4a" d="M56.854 13.744c0 .75-.287 1.071-.628 1.071-.413 0-.646-.41-.646-1.016 0-.696.197-1.07.664-1.07.358 0 .61.338.61 1.015zm-2.514-2.226c.467 0 .502.053.502.535v3.209h.377l.252-.34c.27.287.52.41.916.41.825 0 1.31-.623 1.31-1.585 0-.891-.485-1.534-1.203-1.534-.341 0-.556.107-.898.392V11.09H54.34z"/></g><g><path fill="#4a4a4a" d="M61.52 14.76v.462h1.94v-.463c-.54 0-.594.018-.594-.41v-.642c0-.588.197-1.122.736-1.122.036 0 .072 0 .18.035-.18.089-.305.214-.305.41 0 .232.179.391.413.391.287 0 .484-.212.484-.534a.657.657 0 0 0-.682-.677c-.324 0-.556.16-.844.481v-.41H61.52v.428c.467 0 .592 0 .592.392v1.213c0 .41 0 .445-.592.445"/></g><g><path fill="#4a4a4a" d="M59.697 12.67c.378 0 .558.23.558.693H59.12c0-.443.217-.693.578-.693zm1.382 1.163c0-.981-.538-1.623-1.382-1.623-.861 0-1.437.677-1.437 1.587 0 .999.646 1.515 1.508 1.515.719 0 1.22-.41 1.31-1.158h-.537c-.072.391-.27.642-.7.642-.485 0-.755-.393-.755-.963z"/></g><g><path fill="#4a4a4a" d="M46.645 12.67c.358 0 .538.213.538.693H46.07c0-.443.216-.693.575-.693zm1.364 1.163c0-.981-.52-1.623-1.364-1.623-.862 0-1.455.677-1.455 1.587 0 .999.664 1.515 1.526 1.515.718 0 1.203-.41 1.293-1.158h-.52c-.072.391-.27.642-.701.642-.485 0-.772-.393-.772-.963z"/></g><g><path fill="#4a4a4a" d="M54.04 26.518h2.711V16.73H54.04z"/></g><g><path fill="none" stroke="#4a4a4a" stroke-miterlimit="20" stroke-width=".5" d="M31.06 5v27.655"/></g></g></g></svg>