<svg xmlns="http://www.w3.org/2000/svg" width="288" height="189" viewBox="0 0 288 189"><g><g><g><g><path fill="#006e53" d="M224.481 40.337v8.976c-3.594-.825-5.06-1.983-5.06-4.406 0-3.03 2.531-4.57 5.06-4.57zm3.33 17.753c4.447 1.213 6.074 2.26 6.074 5.183 0 3.53-3.317 5.128-6.074 5.404zm-17.341 3.307c.844 8.658 5.684 13.122 14.017 13.73v4.685h3.319v-4.685c11.203-.717 14.077-8.38 14.077-11.524 0-3.696-.225-9.814-11.203-12.792-1.012-.273-1.97-.497-2.874-.716v-9.758c2.535 0 4.616 2.371 4.676 5.294h7.994c-.454-7.61-5.968-11.029-12.67-11.746V29.64h-3.32v4.245c-6.754.387-13.057 4.246-13.057 11.798 0 7.334 5.628 9.485 11.258 10.974.727.166 1.406.33 1.8.496v11.524c-3.433-.663-6.082-3.199-6.022-7.28z"/></g><g><path fill="#006e53" d="M283.24 0H4.761C2.132 0 .002 2.084 0 4.657V123.58c.003 2.572 2.132 4.658 4.762 4.658H88.38a53.37 53.37 0 0 1 1.91-9.327H9.523V9.325H278.48V118.91h-80.77a53.37 53.37 0 0 1 1.91 9.327h83.62c2.628 0 4.761-2.09 4.761-4.663V4.662C288 2.087 285.867 0 283.24 0"/></g><g><path fill="#006e53" d="M30.12 40.157h109.281c2.63 0 4.76-2.086 4.76-4.662 0-2.578-2.13-4.665-4.76-4.665H30.121c-2.63 0-4.761 2.087-4.761 4.665 0 2.576 2.13 4.662 4.76 4.662"/></g><g><path fill="#006e53" d="M30.12 61.917h109.281c2.63 0 4.76-2.089 4.76-4.662 0-2.576-2.13-4.665-4.76-4.665H30.121c-2.63 0-4.761 2.09-4.761 4.665 0 2.573 2.13 4.662 4.76 4.662"/></g><g><path fill="#006e53" d="M30.657 97.58c-2.926 0-5.297 2.323-5.297 5.188 0 2.863 2.37 5.187 5.297 5.187h64.217c2.085-3.73 4.64-7.162 7.522-10.303-.24-.033-.475-.072-.722-.072z"/></g><g><path fill="#006e53" d="M266.021 102.768c0-2.799-2.53-5.068-5.646-5.068H185.65c2.828 3.094 5.339 6.469 7.4 10.133h67.325c3.117 0 5.646-2.27 5.646-5.065"/></g><g><path fill="#6dbe4b" d="M192.691 134.183c0 26.294-21.838 47.685-48.685 47.685s-48.688-21.39-48.688-47.685c0-2.02.17-3.997.42-5.95a46.405 46.405 0 0 1 2.19-9.328c1.399-4.037 3.299-7.85 5.691-11.323a47.617 47.617 0 0 1 3.297-4.215c8.938-10.303 22.238-16.868 37.09-16.868a48.991 48.991 0 0 1 35.266 14.905c1.93 1.989 3.705 4.121 5.264 6.413a47.124 47.124 0 0 1 5.546 11.088 46.493 46.493 0 0 1 2.188 9.327zm.36-26.353c-2.06-3.664-4.57-7.04-7.4-10.133-10.255-11.217-25.1-18.327-41.645-18.327-16.523 0-31.349 7.09-41.602 18.277-2.88 3.143-5.435 6.573-7.521 10.305-1.923 3.441-3.447 7.117-4.586 10.953a53.273 53.273 0 0 0-1.911 9.327 53.999 53.999 0 0 0-.346 5.95c0 30.226 25.105 54.813 55.966 54.813 30.857 0 55.963-24.587 55.963-54.812a54 54 0 0 0-.344-5.95 53.394 53.394 0 0 0-1.912-9.328z"/></g><g><path fill="#6dbe4b" d="M123.809 131.895h40.386v29.409h-40.386zm6.906-15.756c0-7.29 5.837-13 13.288-13 7.448 0 13.285 5.71 13.285 13v7.929h-26.573zm34.543.01c0-11.48-9.537-20.819-21.255-20.819-11.72 0-21.255 9.34-21.255 20.819v7.955a7.43 7.43 0 0 0-6.15 4.129c-.47.955-.758 2.009-.758 3.137v30.446c0 4.018 3.337 7.287 7.439 7.287h41.448c4.102 0 7.439-3.27 7.439-7.287V131.37c0-1.128-.288-2.182-.758-3.137a7.43 7.43 0 0 0-6.15-4.13z"/></g></g></g></g></svg>