<svg xmlns="http://www.w3.org/2000/svg" width="154" height="61" viewBox="0 0 154 61"><g><g><g><path fill="#fff" d="M30.5 41C36.299 41 41 36.299 41 30.5S36.299 20 30.5 20 20 24.701 20 30.5 24.701 41 30.5 41z"/><path fill="none" stroke="#fff" stroke-miterlimit="20" stroke-width="2" d="M30.5 41C36.299 41 41 36.299 41 30.5S36.299 20 30.5 20 20 24.701 20 30.5 24.701 41 30.5 41z"/></g><g><path fill="none" stroke="#fff" stroke-miterlimit="20" stroke-width="2" d="M61.5 41C67.299 41 72 36.299 72 30.5S67.299 20 61.5 20 51 24.701 51 30.5 55.701 41 61.5 41z"/></g><g><path fill="none" stroke="#fff" stroke-miterlimit="20" stroke-width="2" d="M92.5 41c5.799 0 10.5-4.701 10.5-10.5S98.299 20 92.5 20 82 24.701 82 30.5 86.701 41 92.5 41z"/></g><g><path fill="none" stroke="#fff" stroke-miterlimit="20" stroke-width="2" d="M123.5 41c5.799 0 10.5-4.701 10.5-10.5S129.299 20 123.5 20 113 24.701 113 30.5 117.701 41 123.5 41z"/></g></g></g></svg>