<svg xmlns="http://www.w3.org/2000/svg" width="197" height="197" viewBox="0 0 197 197"><defs><clipPath id="kjk8a"><path d="M0 0h197v197H0z"/></clipPath></defs><g><g><g><g/><g clip-path="url(#kjk8a)"><path fill="#ffd053" d="M0 98.5C0 44.1 44.1 0 98.5 0S197 44.1 197 98.5 152.9 197 98.5 197 0 152.9 0 98.5"/></g></g><g><path fill="#fdc448" d="M149.905 15c9.836 15.275 15.54 33.437 15.54 52.925 0 54.264-44.221 98.255-98.77 98.255-18.944 0-36.642-5.31-51.675-14.51C32.553 178.93 63.27 197 98.23 197c54.55 0 98.77-43.99 98.77-98.255 0-35.419-18.843-66.456-47.095-83.745"/></g><g><path fill="#fed679" d="M12.818 108.482c0-50.438 41.003-91.327 91.583-91.327 29.566 0 55.854 13.973 72.599 35.654C161.185 25.43 131.544 7 97.585 7 47.005 7 6 47.889 6 98.329c0 20.956 7.084 40.26 18.987 55.671-7.74-13.399-12.17-28.943-12.17-45.518"/></g><g><path fill="#2c2c2b" d="M57.554 112.965c-2.542-2.498-6.616.265-5.298 3.592C59.547 134.984 77.356 148 98.178 148c20.474 0 38.037-12.585 45.55-30.524 1.369-3.273-2.736-6.105-5.26-3.631-14.44 14.16-45.098 34.312-80.914-.88"/></g><g><path fill="#2c2c2b" d="M70 81c0 6.629-3.359 12-7.5 12-4.143 0-7.5-5.371-7.5-12 0-6.627 3.357-12 7.5-12 4.141 0 7.5 5.373 7.5 12"/></g><g><path fill="#2c2c2b" d="M142 81c0 6.629-3.359 12-7.5 12-4.143 0-7.5-5.371-7.5-12 0-6.627 3.357-12 7.5-12 4.141 0 7.5 5.373 7.5 12"/></g></g></g></svg>