<svg xmlns="http://www.w3.org/2000/svg" width="978" height="996" viewBox="0 0 978 996"><g><g opacity=".09"><g opacity=".09"><path fill="#006f53" d="M488.987 983C759.066 983 978 762.94 978 491.5S759.066 0 488.987 0C218.907 0 0 220.06 0 491.5.027 762.968 218.934 983 488.987 983z"/></g><g opacity=".09"><path fill="#fff" d="M354.489 969.73l-2.144-369.609s-10.501-4.144-9.992 17.762c0 0-1.58 5.194-11.037 2.61 0 0-3.724 1.023-3.724 4.172 0 3.122-16.904-1.05-16.315-15.125 0 0-9 3.095-10.046-6.781 0 0 0-5.76 9.484-9.931 0 0 27.968 2.61 30.084-6.244 0 0 4.715-8.88-12.671-4.17l-11.6-.54s-4.206-3.12-7.394 0c0 0-9.483 15.125-23.172 1.562 0 0-20.039-4.683 0-13.026 0 0 6.295-1.05 4.206-6.781 0 0 8.974-9.42 14.225-8.881 0 0 1.044-6.244 9.51-4.199 0 0 7.367-6.243 26.36-3.094 0 0 5.787-9.42-9.51-6.81 0 0-7.34 8.882-14.76 3.66 0 0-10.556 11.52-23.173 2.1 0 0-14.225 2.61-13.716-8.881 0 0-12.11 7.831-9.484-17.735 0 0-46.935 10.442-41.121-13.052 0 0 .509-27.666 46.908-33.425 0 0 8.438-1.05 11.064-6.782 0 0 11.037-.538 24.806 7.293 0 0 8.948.512 14.761 18.785 5.787 18.273 15.27 1.05 13.18-.511 0 0-13.18-7.293-8.465-21.422 0 0-18.967 10.469-15.27-9.904 0 0-5.25-2.099-6.83-7.293 0 0-1.608-14.102 5.786-18.811 0 0 2.652 3.66 3.16-10.442 0 0 12.11-3.66 4.233-10.953 0 0-9.483-6.81-11.626 5.194 0 0-18.994 8.37-10.02-15.663 0 0-12.67 20.345-23.708 7.293h-5.277s-23.736 10.98-13.716-19.834c0 0-21.084 27.665-15.297-7.293 0 0 15.297-22.983 49.024-10.442 0 0 13.18-3.66 26.924 3.66 0 0 4.179 4.171 14.76 4.171 0 0 4.18-5.22-3.723-6.27 0 0-23.173 2.099-13.716-15.125 0 0 5.813-9.392 3.723-14.613 0 0-14.225 3.66-20.6-10.953 0 0-4.207-6.782-8.975-5.22 0 0-16.85 4.197-22.128-4.71 0 0-6.295-.512-8.948-4.683 0 0-27.94 7.293-12.135-14.613 0 0-7.367-22.445 23.226-13.564 0 0 7.34-5.732-4.768-10.953 0 0-17.387 15.124-25.852 8.343 0 0-5.813-6.244 13.716-17.735 0 0-26.87-3.66-2.09-16.713 0 0 6.859-4.171 17.387-3.66 0 0 10.555-.538 14.225 7.859 0 0 6.831-1.588 6.831-3.66h7.367s4.769-3.15 10.582-3.15c5.813 0 6.322-5.22 13.18 5.733 0 0-4.768 8.37-17.949 4.172 0 0-10.019 0-1.044 5.732 0 0 18.993 13.563-1.045 21.906 0 0-2.09 7.293 12.135 7.293 0 0 9.484 2.1 12.645 4.71 0 0-5.786-5.76-3.697-11.492 0 0-3.697-12.514 14.225-8.88 0 0 13.716 2.61 8.412-20.346 0 0-40.586.538-6.858-18.273 0 0-16.315-9.42-17.895-10.442 0 0-13.743 2.61-16.369 6.782 0 0-16.314 8.37-14.225-6.27 0 0 7.367-2.073 7.367-4.683 0 0 1.072-4.683 7.93-6.27l15.833.537s6.322-7.83 9.483-7.83c0 0 14.225-4.71 7.394-7.832 0 0-8.466-.539-8.466-6.782 0 0 3.697-7.831 13.18-5.732 0 0 3.698-4.172-.535-8.881 0 0-5.813-.539-5.278-2.61 0 0-7.367 1.049-10.555-1.589 0 0-8.974 10.47-14.251 7.859 0 0-9.484 28.177-33.728 16.2 0 0-.51-2.098-4.206-4.198 0 0-3.134-4.682-.536-8.88l3.161.51s-2.116-7.292 13.69-6.243c0 0 4.232 0 3.723-9.93 0 0 0-7.832 10.555-4.71 0 0 5.278 2.61 8.412-10.953 0 0 5.813-12.514 23.2-9.392 0 0-7.367-9.93-7.903-18.785 0 0-6.323-12.002 1.58-17.762 0 0 2.68-4.171 1.608-10.98 0 0-10.555-1.022-6.35-12.514 0 0 12.699-10.953 15.86 5.221 0 0 13.69 11.492 14.225-.538 0 0 4.206-13.564-12.136-10.953 0 0-9.483 1.05-4.768-14.613 0 0 3.724.538 4.233-7.32 0 0 20.038-4.172 17.922-9.393l4.741-1.05s3.188-5.193 5.278-.51c0 0 4.206 4.17 2.625 6.27 0 0 13.18-1.05 12.698 2.072 0 0 7.34-3.122 8.921 5.221 0 0 26.897 2.61 6.322 13.564 0 0 1.045 8.88-8.411 7.831 0 0 0 8.881-6.832 7.831 0 0-14.252 12.003 2.09 6.782l5.786-3.149s20.039-17.223 22.664-8.88c0 0 5.813 4.682-4.715 8.342 0 0-15.297 9.42-18.458 14.102 0 0-3.697 8.37-10.555 8.37 0 0-15.832 9.392-5.25 10.442 0 0 5.813 2.61 4.768 4.17l4.18-.51s7.902-7.832 15.805-2.1c0 0 7.394 6.244-4.18 9.93 0 0 1.046 3.15-9 2.073 0 0-7.314 10.98-14.199 2.1 0 0-4.206-3.66-5.277 4.17 0 0-2.063 8.37 4.233 8.37 0 0 7.93 3.149 5.25 5.221 0 0 8.412 1.561 8.975 4.171 0 0 14.76 3.122 19.502-1.56 0 0 10.582-9.93 15.833-5.733 0 0 5.25 5.221-10.02 11.492 0 0-1.044 4.171-12.135 4.171 0 0-7.367 1.05-8.412 2.1 0 0-3.724 4.709-3.724 7.83 0 0-1.018 8.343-13.662 2.1-12.671-6.27-.563-1.561-.563-1.561s-16.341 4.171-8.411 14.613l19.502 1.023s7.876.538 6.296 7.831c0 0 1.044 7.831-1.072 10.953 0 0 1.072 8.37 6.35 7.32 0 0 14.76 1.05 13.688 5.732 0 0 1.608 8.881 6.323 12.003 0 0 5.813 22.956-16.342 18.785 0 0-13.716-.539-15.805-20.346 0 0-5.278-12.03-8.44-9.419 0 0-1.044 6.27 1.581 9.42 0 0 2.144 6.243-6.858 2.072 0 0-8.947-2.61-8.947 1.05l.536 27.153s13.716 2.1 16.85 5.221c0 0 20.574-.511 19.53 11.492 0 0 4.205 5.732 10.019.538 0 0 8.974-6.27 15.832 3.66 0 0 8.948 2.61 8.948 0 0 0 7.93-7.347 10.581 5.22 0 0-1.071 7.294 2.09 8.855 0 0 3.134 10.98-11.064 12.54 0 0 0-3.66-4.206-2.61 0 0-2.143-7.831-6.322-5.22 0 0-2.652 3.66-7.93 3.66 0 0-14.76 1.56-17.386-1.05 0 0-10.555-3.149-9.483-5.221 1.044-2.1-1.072-1.561-1.072-1.561s-8.412 1.05-6.295 5.22c0 0-12.672 6.783 0 5.733 0 0 9.483 4.171 8.947 8.37 0 0 13.716 4.71 11.6 6.782 0 0 13.18 1.05 6.322 24.005 0 0-4.742 24.005-16.341 17.762 0 0-14.199 7.293-21.62.511 0 0-5.786 1.05-5.786 2.61 0 0 8.975 6.782 6.832 8.882 0 0 9 1.56 10.581-2.1 0 0 4.769-6.243 11.037-6.243 0 0 12.672-4.71 17.95 5.22 0 0 4.205 2.1 4.741 13.564 0 0 9.483 8.37 0 12.003l-2.652 4.683s10.582-3.633 12.135 8.88c0 0 8.975 3.66 1.581 15.125l-5.25 1.05s-1.608 7.293-17.923-2.61c0 0-2.143-5.222-5.277-3.15 0 0-4.206-5.22-8.439-6.243 0 0-5.277-3.66-5.277 3.122 0 0 4.741 5.732-8.412 6.27 0 0 4.742 6.244 2.09 8.343 0 0 10.581 17.762 18.457 16.201 0 0 11.6 3.149 11.6 17.25 0 0 8.974 13.053 4.742 17.735 0 0 5.813 6.271 0 10.442 0 0-1.045 8.881-9.484-.538l-18.993-.538s4.232 5.22 5.277 8.88c0 0 12.109 5.222 12.645 15.18 0 0-1.072 7.83-8.412 6.78 0 0-6.885 8.882-10.528 8.37 0 0 7.902 5.733 10.528 4.145 0 0 5.25-2.61 8.974 1.588 0 0 11.573-3.66 12.645 7.293 0 0 10.555 11.491-1.072 16.2 0 0-6.295 1.05-6.295 3.15 0 0-5.814 2.072-9.51-1.05 0 0-7.903.511-8.948-2.637 0 0-10.528 1.05-10.528-1.588 0 0-5.25-1.05-4.742-2.61 0 0-4.768 0-2.116 4.709 0 0 2.652 0 3.16 2.637 0 0 6.859-1.05 6.859 2.073 0 0 8.412 1.56 7.903 4.71 0 0 9.483-.54 8.947 2.61 0 0 4.233 1.022 3.161 4.71 0 0 6.859 3.12 6.35 11.975 0 0 8.411 2.637 7.367 7.831 0 0 2.09 8.37-11.627 5.786l-3.188-3.148-4.179-.539s-11.064-6.781-10.046-8.88c1.098-2.073.563-1.561.563-1.561s-12.11 3.66-15.27-4.71l-2.652 3.66L372.92 976z"/></g><g opacity=".09"><path fill="#fff" d="M577.527 995.833v-268.6h-13.146s-1.576 2.691-4.168 2.691c0 0 3.126 3.767-3.18 4.278 0 0-4.168 2.691-2.084 4.305h-9.966s-6.306 13.938-18.944 4.252c0 0-5.798 0-1.042-9.095 0 0 4.195-1.076 1.042-8.044 0 0 2.619-7.507 6.84-8.556 0 0 11.035-14.503 19.479-14.503 0 0 13.119 1.077 13.119-3.74 0 0 6.305-5.919 8.95-4.843 0 0 6.306-5.892 1.043-10.708l-13.146-1.076s-3.153 10.197-14.722 6.43c0 0-12.077-7.506 3.153-19.291 0 0 5.236 2.125 2.11-8.583-3.153-10.762-1.576-1.076-1.576-1.076s-4.222-9.094 8.363-14.449c0 0 19.451-1.103 13.707-3.228 0 0 6.813-8.072-3.714-6.43 0 0-3.126-1.077-8.417 1.614 0 0-14.722 2.717-15.23-1.615 0 0-7.882-3.202-6.305-6.43l-1.577-9.121s4.703-3.767.535-9.66c0 0-6.84-4.25-6.333-10.708 0 0 1.07-6.942 5.264-6.942 0 0 22.07.539 22.07-4.304 0 0 5.237-1.588 4.73-12.323 0 0 1.63-5.355-3.127-12.888 0 0 .534-5.92 2.084-5.327l-.534-3.23-3.153-.564s.561 4.843-5.237 2.69c0 0-4.195 2.691-4.73 6.43 0 0-5.797 1.077-5.236-.537.534-1.615-.561-1.615-.561-1.615s1.576 6.969-5.237 6.404c0 0-1.069 8.045-9.459 2.152 0 0-4.195-2.69-7.909 1.615l-4.756-2.126s-4.168-1.076-1.042-11.811c0 0 2.672-5.355 6.867-6.942 0 0 1.042-9.66 9.459-8.045 0 0 3.126-3.794-1.577-6.995 0 0-4.756 0-1.63-7.507l-1.042-11.785s3.153-7.506 7.348-6.43l5.798-2.69s2.084-3.23 6.84-2.153c0 0 .508-4.816-1.042-5.893 0 0-11.596-.538-9.458-6.968 0 0 3.687-13.937-5.772-7.507 0 0-4.756-.538-8.443 2.69-3.687 3.23-1.576 0-1.576 0s-.535 6.431-6.84-.537c0 0-4.703 0-3.153-4.278 0 0 0-8.045 3.687-8.045 0 0 4.195-4.816 16.325-3.229l3.126-3.74s8.39-11.811 14.215-11.811c0 0 3.153-4.278 6.279-3.74 0 0 6.306-13.937 12.638-13.4 0 0 3.126-2.69-8.95-2.69l-7.883-.538h-1.603s1.603 3.74-4.703 2.152c0 0 3.126 5.382-13.707 2.153 0 0-4.194-2.69-8.95 4.305 0 0-5.772 4.278-7.348 4.816 0 0-5.237 4.816-8.39-2.664v-16.627s5.237-5.92 4.73-7.507c0 0 11.034-1.614 8.95-2.69 0 0 12.104-1.077 14.188 1.076l8.417-1.077s6.813.538 8.416-8.583c0 0 4.195-6.968 10.5-6.43 0 0 7.348-1.076 4.757-3.229 0 0 2.084-3.74 4.168-2.69 0 0 9.458-4.278 2.11-5.893 0 0-9.992 1.077-.534-9.659 0 0 4.73-10.708-1.068-12.888 0 0-3.688-3.228-6.306 10.736 0 0-.508 9.094-9.459 10.17 0 0-8.924 12.323-18.944-1.076l-2.084-15.014s4.756-.538 4.222-6.968l.534-12.861s-1.068-9.121 7.882-9.121c0 0 6.84-7.507-4.194-6.969 0 0-6.333 4.817-15.791-1.076-9.459-5.892-1.577-.538-1.577-.538s-9.485-1.076-8.95-7.507l1.576-5.892s-2.646-8.583 6.84-8.045c0 0 8.95-1.076 11.57 2.69 0 0 7.4 2.691 7.908 1.077 0 0 6.306-3.74 9.459-1.076 0 0-9.967-7.507 0-12.888 0 0 7.347-4.278-11.597-3.74 0 0-4.194 3.74-5.798-6.969 0 0 .562-8.582 12.665-5.892 0 0 4.73 3.74 8.898-1.614 0 0 2.11-4.278 5.263-3.74 0 0 2.646-8.045 6.306-6.969 0 0 5.798-2.125 4.222-8.044 0 0-3.714 0-5.798 2.152 0 0-4.756-1.05-11.009-8.045 0 0-9.485-2.663-1.63-10.708l12.078-1.077 2.11-2.69 2.084.538s2.138-8.045-6.305-10.708c0 0-3.126-1.077-7.348-6.43l-6.813-2.153s-9.459-14.476 3.152-11.247c0 0 5.237 0 7.348 3.229 0 0 5.264 2.152 4.756 4.305 0 0 3.126-2.69 5.21-2.69 0 0-6.305-2.153-5.77-6.431 0 0 2.644-4.305 4.728-3.767l1.042-1.615 3.18 1.077s8.39-4.816-.561-8.045c0 0-2.645-1.614-8.951-3.74 0 0-9.432 4.278-8.924-6.969 0 0 5.798-13.399 9.458-15.551 0 0 4.73-3.229 7.348 0l2.111-1.076s-2.11-5.355-1.576-10.709c0 0 3.126-14.475 12.077-4.305 0 0 5.237 1.615 6.84 10.17 1.603 8.584.507 1.615.507 1.615s5.29 3.74 4.756 6.969c0 0 7.402 5.919 6.867 1.614l1.55 5.892 2.137 1.077-.534 4.278s4.703-3.23 3.66 7.506c0 0 .535 6.969 6.306 6.969 0 0 5.798-.538 4.73 4.278 0 0 5.236 1.641-2.646 10.197 0 0-3.66 3.229 0 5.892 0 0 24.742 13.938 4.222 26.798l-10.5 1.615-.535 14.475s11.008-2.69 16.806 5.354c5.772 8.045 1.577 1.615 1.577 1.615s5.237 6.968 6.84 6.43c0 0 5.798 1.076 5.263 4.278 0 0 12.612 1.614 9.967 6.969 0 0 1.095 6.43 5.263 6.968 0 0 6.84.538 6.306 4.305 0 0 7.348-3.767 8.39 10.709 0 0 3.126 15.013-16.272 15.013 0 0-6.84 5.892-14.776.538 0 0-7.882-4.843-7.348-12.323 0 0-3.66-2.69-5.21-9.632 0 0-7.935-10.735-15.256-5.381 0 0-6.814 1.587-9.432 5.892l.988 2.153s14.188 1.614 15.765 7.506c0 0 7.935 5.893-4.703 8.583l-.534 3.23s6.84-2.153 9.966 6.403l14.188 2.69s8.443 0 12.638 9.66c4.195 9.632.534 1.614.534 1.614l-.534-1.615s9.485 5.355 5.798 12.323c0 0-1.042 8.045-14.722 1.614 0 0-1.042-3.766-11.035-5.354l-6.306-1.076s-5.29-5.892-10.527 2.69c0 0 2.618 10.736 12.077 9.66 0 0 8.416-2.153 8.416 1.614 0 0 17.368-3.767 21.028 4.816 0 0 6.306 1.615 11.062-3.202l18.383-.538 2.084 4.278 4.221 1.077s5.798 7.506 1.577 12.86c0 0-.535 5.355 5.798 7.507 0 0 13.146 5.892 4.168 16.09 0 0-9.966 10.17-19.425-6.43l-2.645-1.077v-3.229l-4.195.538s-4.195 11.274-19.451 13.938c0 0-10.528-.538-13.707-3.229l-5.772-.538s-8.416-3.767-8.95-11.785c0 0 2.618-10.735 6.305-12.323l-6.305-2.69v-2.153l-7.883.538s-1.63 4.305-6.305 2.691c0 0 0 4.278-7.348 2.152 0 0 3.18 5.355 0 6.969 0 0 8.39 1.076 6.306 3.767 0 0 8.924-4.843 12.611 5.354l-2.11 2.664s3.179 10.735-6.306 11.273c0 0-2.619 8.045-5.21 8.045h14.722s1.576-6.43 19.478-2.69c0 0 8.363-6.97 15.23-6.97 0 0 5.263-3.766 9.458-3.228l2.138-2.152 10.5.538s6.28 3.74 6.28 9.12c0 0 15.256 13.938.56 18.754 0 0-7.347 5.354-12.638-5.892l-5.771-.538s-4.195 2.69-7.909 2.152c0 0-1.042 7.507-7.32 7.507 0 0 0 4.816-8.444 3.74 0 0 1.576 5.919-6.814 2.69 0 0-1.042 4.816-6.305 2.664 0 0-1.603 5.354 4.73 5.92 0 0 7.374 1.614 4.194 8.555l18.41 1.615s3.179.538 6.305 4.816c0 0 22.578-1.615 21.562 10.708l-.56 12.323s15.79 10.708 8.416 20.906c0 0-7.348 5.892-13.68-3.767 0 0-2.645-4.816-7.348-7.507 0 0-7.348-2.663-11.008-4.305 0 0-3.18-2.152-2.672 3.229 0 0 6.305.538 5.798 3.229l8.95 1.614s6.84 5.892 6.28 9.121c0 0 12.103 15.525-3.153 18.242 0 0-4.195 5.327-12.612-1.076l-7.347.538s-1.07 3.767-5.798 2.152c0 0-2.084 6.404-15.791 4.843 0 0-3.153 6.969-11.57 7.48 0 0-2.645 3.767-8.95 3.767 0 0 11.569 3.202 9.458 9.121 0 0 5.798-1.076 3.126 5.354l2.138 5.92-.562 7.48s.562 2.125-5.236 3.228c0 0-2.085 7.48 1.042 8.556 0 0 0 .538-2.138 2.153 0 0 4.756 7.506-8.87 1.587 0 0-7.402-3.74-1.63 10.735l2.645 2.126s5.824-12.888 16.833-12.888c0 0 8.416-3.202 6.305-5.354 0 0 8.978-5.328 12.639 2.152 0 0 6.305.511 5.798 3.202 0 0 9.458-1.587 8.39 1.641 0 0 7.347 0 5.263-1.641 0 0 12.05-1.587 11.008 4.305-1.042 5.892 0 1.641 0 1.641s5.264.538 5.264 6.404c0 0 15.23-.538 12.104 5.892 0 0 8.924 4.843 5.21 12.888 0 0 5.264 1.076 5.798 9.121 0 0 3.18 8.072-8.39 8.583h-22.604s-6.84-3.202-13.68-.538c0 0 8.95 6.941 4.168 11.784 0 0 8.977 3.202-11.543 16.601 0 0-13.146 7.507-24.715 1.103 0 0-9.459 3.202-14.215-3.228 0 0-4.702 1.076-9.966-4.843 0 0-6.84-3.74-7.882 3.228l7.294.538s2.672 5.893 7.936 2.153c0 0 16.833 7.507 16.833 4.843 0 0 8.39 4.816 6.306 7.48 0 0 9.458 4.278 9.458 8.045 0 0 2.645 5.919 5.772 6.995 0 0 7.935 9.632-7.883 14.475 0 0-5.236 4.816-14.187-4.843 0 0-4.756 3.202-5.798-2.152h-3.127s-1.576 4.843-8.977.538c0 0-4.703 0-4.703-2.69 0 0-3.66-1.588-4.756.564h-5.744s-4.222 6.43 2.084 9.121c0 0 5.21 2.691 3.66 4.278 0 0 7.348-1.614 17.849-.538 10.554 1.077 1.63 0 1.63 0s5.263 5.893 9.992 5.893c0 0 9.459 4.816-1.068 14.475 0 0-7.321 5.892-15.23 3.74 0 0-4.756-2.126-5.798-6.404 0 0-5.798 1.05-6.787-3.202-1.095-4.304 0-1.64 0-1.64s-.561 8.044-8.978-3.74l-8.39 1.049v258.429c.268.054-3.393 4.305-17.634 3.255z"/></g><g opacity=".09"><g opacity=".09"><path fill="#006f53" d="M637.32 666.657s13.187 1.075 13.723-1.076c0 0 5.28-6.965 14.232-1.076l3.726 1.614s-3.726 0-3.726 2.124l-10.56 1.076s-5.79 2.69-10.024.538z"/></g><g opacity=".09"><path fill="#006f53" d="M563.563 489.76v12.317s-2.09 1.614-4.208-1.614c-2.117-3.227-1.608-1.075-1.608-1.075s0-5.89-3.672-4.814l-1.635-3.227 3.726-1.076z"/></g><g opacity=".09"><path fill="#006f53" d="M613.065 461.36l-1.045 23.558s14.741 5.352 13.696 9.655c0 0 16.913-10.192 26.91-8.041 0 0 3.725-3.2 6.325-3.2 0-.027-26.91 1.586-45.886-21.972z"/></g><g opacity=".09"><path fill="#006f53" d="M274.549 224s14.232 2.662 16.296.511c0 0 10.05 6.965 15.304 6.427 0 0 6.861 2.69 7.933 1.076 0 0 3.7 6.939 9.998 6.428l.563 5.351s-5.817 6.966-15.305 3.738c0 0-4.744-6.427-8.979-4.276 0 0-6.861-2.689-7.37-6.965-.536-4.276-.536-1.613-.536-1.613s-6.326-3.765-8.416-2.152c0 0-5.816-8.579-10.024-6.965-4.235 1.667.536-1.56.536-1.56z"/></g><g opacity=".09"><path fill="#006f53" d="M263.156 487.092s-10.025-1.613-2.118 5.352h13.16s2.654-4.276 9.488-1.613c0 0 3.136-4.814 9.489-3.739l6.325-2.689s2.653-6.427-3.699-5.352c0 0-3.19 3.228-10.05 0 0 0 .562 4.814-12.142 5.352.053 0-.456 3.765-10.453 2.69z"/></g><g opacity=".09"><path fill="#006f53" d="M285.755 501.406l30.582-1.076s1.072 5.352-9.489 8.579c0 0-11.632-1.587-11.632 1.613 0 0-12.115.538-13.723-2.151l-7.37-1.076s-11.043-.538 2.09-5.89z"/></g><g opacity=".09"><path fill="#006f53" d="M382.48 488.33l-.51 6.4"/></g></g></g></g></svg>